<svg width="55" height="56" viewBox="0 0 55 56" fill="none" xmlns="http://www.w3.org/2000/svg">
<path d="M37.172 53.1156V42.0617C15.9134 40.133 0 27.4479 0 12.2906C0 10.2548 0.293056 8.21328 0.871376 6.22388L1.84168 2.8844L2.81198 6.22388C6.18196 17.8092 20.2256 26.8557 37.172 28.4609V17.4596L55 35.2876L37.172 53.1156ZM2.14083 10.1559C2.06189 10.8653 2.02158 11.5792 2.02158 12.2906C2.02158 26.603 17.5996 38.5685 38.2575 40.1252L39.1916 40.196V48.2376L52.1396 35.2896L39.1916 22.3416V30.6522L38.1041 30.5692C21.2261 29.2957 7.31183 21.2622 2.14083 10.1559Z" fill="#2D3047"/>
</svg>
