<svg width="101" height="25" viewBox="0 0 101 25" fill="none" xmlns="http://www.w3.org/2000/svg">
<g clip-path="url(#clip0_13_578)">
<mask id="mask0_13_578" style="mask-type:luminance" maskUnits="userSpaceOnUse" x="0" y="0" width="101" height="25">
<path d="M100.5 0H0.5V25H100.5V0Z" fill="white"/>
</mask>
<g mask="url(#mask0_13_578)">
<path d="M38.725 0.587646L30.0976 22.7429H34.734L36.5244 18.1156H45.6843L47.4663 22.7429H52.0675L43.4721 0.587646H38.725ZM38.0955 14.0495L41.114 6.25338L44.1155 14.0495H38.0955Z" fill="black"/>
<path d="M92.2945 6.89844C90.672 6.89844 89.0863 7.3712 87.7376 8.25699C86.3889 9.14271 85.338 10.4017 84.7175 11.8746C84.0964 13.3476 83.9344 14.9684 84.2503 16.5321C84.5669 18.0957 85.3481 19.5321 86.4953 20.6594C87.6419 21.7868 89.1031 22.5546 90.6941 22.8656C92.2851 23.1766 93.9344 23.017 95.4331 22.4069C96.9311 21.7967 98.2122 20.7636 99.1131 19.4379C100.015 18.1123 100.495 16.5538 100.495 14.9595C100.495 12.8215 99.6312 10.7712 98.0937 9.25949C96.5556 7.74771 94.4692 6.89844 92.2945 6.89844ZM92.2945 18.8874C91.504 18.8874 90.7316 18.6571 90.075 18.2256C89.4177 17.7941 88.9056 17.1808 88.6031 16.4632C88.3005 15.7457 88.2216 14.9561 88.3762 14.1944C88.5301 13.4327 88.9103 12.733 89.4692 12.1838C90.0281 11.6346 90.7396 11.2606 91.5147 11.1091C92.2898 10.9576 93.093 11.0353 93.8233 11.3326C94.5529 11.6298 95.1774 12.1331 95.6165 12.7788C96.0549 13.4246 96.2892 14.1838 96.2892 14.9605C96.2905 15.4764 96.1874 15.9875 95.9873 16.4642C95.7865 16.941 95.4926 17.3742 95.1212 17.739C94.7503 18.1039 94.3092 18.3931 93.824 18.5901C93.3394 18.7872 92.8193 18.8882 92.2945 18.8874Z" fill="black"/>
<path d="M57.5922 17.0292L53.8473 7.17798H49.425L55.4524 22.743H59.8396L65.7594 7.17798H61.3371L57.5922 17.0292Z" fill="black"/>
<path d="M79.6687 3.04175H75.4605V7.178H73V10.8944H75.4605V17.5202C75.4605 21.2712 77.5649 22.8833 80.5248 22.8833C81.5288 22.8976 82.5248 22.7065 83.4498 22.3222V18.4666C82.9465 18.6489 82.4157 18.7456 81.8795 18.7523C80.6017 18.7523 79.6687 18.2614 79.6687 16.579V10.8944H83.4498V7.178H79.6687V3.04175Z" fill="black"/>
<path d="M69.2189 6.05666C70.913 6.05666 72.2865 4.70679 72.2865 3.04163C72.2865 1.37648 70.913 0.0266113 69.2189 0.0266113C67.5248 0.0266113 66.1513 1.37648 66.1513 3.04163C66.1513 4.70679 67.5248 6.05666 69.2189 6.05666Z" fill="black"/>
<path d="M71.3233 7.17798H67.1153V22.743H71.3233V7.17798Z" fill="black"/>
<path d="M8.73062 24.9519C13.2612 24.9519 16.934 21.3419 16.934 16.8888C16.934 12.4356 13.2612 8.82568 8.73062 8.82568C4.20002 8.82568 0.527222 12.4356 0.527222 16.8888C0.527222 21.3419 4.20002 24.9519 8.73062 24.9519Z" fill="#04E061"/>
<path d="M22.9615 23.9344C25.6992 23.9344 27.9184 21.753 27.9184 19.0621C27.9184 16.3713 25.6992 14.1899 22.9615 14.1899C20.2238 14.1899 18.0045 16.3713 18.0045 19.0621C18.0045 21.753 20.2238 23.9344 22.9615 23.9344Z" fill="#FF4053"/>
<path d="M10.2995 7.77468C11.9936 7.77468 13.367 6.42481 13.367 4.75966C13.367 3.0945 11.9936 1.74463 10.2995 1.74463C8.60536 1.74463 7.23199 3.0945 7.23199 4.75966C7.23199 6.42481 8.60536 7.77468 10.2995 7.77468Z" fill="#965EEB"/>
<path d="M21.0357 13.1378C24.7192 13.1378 27.7054 10.2027 27.7054 6.58222C27.7054 2.96165 24.7192 0.0266113 21.0357 0.0266113C17.3521 0.0266113 14.366 2.96165 14.366 6.58222C14.366 10.2027 17.3521 13.1378 21.0357 13.1378Z" fill="#00AAFF"/>
</g>
</g>
<defs>
<clipPath id="clip0_13_578">
<rect width="100" height="25" fill="white" transform="translate(0.5)"/>
</clipPath>
</defs>
</svg>
