<svg width="90" height="90" viewBox="0 0 90 90" fill="none" xmlns="http://www.w3.org/2000/svg">
<path d="M72.8812 43.125H62.6812V17.1C62.6812 15.6081 62.0886 14.1774 61.0337 13.1225C59.9788 12.0676 58.5481 11.475 57.0562 11.475H32.9437C31.4519 11.475 30.0212 12.0676 28.9663 13.1225C27.9114 14.1774 27.3187 15.6081 27.3187 17.1V43.125H17.1187C15.6269 43.125 14.1962 43.7176 13.1413 44.7725C12.0864 45.8274 11.4937 47.2581 11.4937 48.75V72.9C11.4937 74.3918 12.0864 75.8226 13.1413 76.8774C14.1962 77.9323 15.6269 78.525 17.1187 78.525H41.25C42.6398 78.5283 43.9794 78.0059 45 77.0625C46.0243 77.9998 47.3615 78.5213 48.75 78.525H72.9C74.3918 78.525 75.8226 77.9323 76.8775 76.8774C77.9324 75.8226 78.525 74.3918 78.525 72.9V48.75C78.525 48.0097 78.3789 47.2767 78.095 46.593C77.8112 45.9094 77.3952 45.2884 76.8708 44.7659C76.3465 44.2433 75.7242 43.8293 75.0396 43.5478C74.355 43.2662 73.6215 43.1225 72.8812 43.125ZM43.125 72.9C43.125 73.3973 42.9275 73.8742 42.5758 74.2258C42.2242 74.5774 41.7473 74.775 41.25 74.775H17.1187C16.6215 74.775 16.1445 74.5774 15.7929 74.2258C15.4413 73.8742 15.2437 73.3973 15.2437 72.9V48.75C15.2437 48.2527 15.4413 47.7758 15.7929 47.4241C16.1445 47.0725 16.6215 46.875 17.1187 46.875H24.5062V54.375C24.5062 54.8723 24.7038 55.3492 25.0554 55.7008C25.407 56.0524 25.884 56.25 26.3812 56.25H32.0062C32.5011 56.2422 32.9735 56.0422 33.3235 55.6922C33.6735 55.3423 33.8735 54.8698 33.8812 54.375V46.875H43.125V72.9ZM31.0687 43.125V17.1C31.0687 16.6027 31.2663 16.1258 31.6179 15.7742C31.9696 15.4225 32.4465 15.225 32.9437 15.225H40.2937V22.725C40.2937 23.2223 40.4913 23.6992 40.8429 24.0508C41.1946 24.4024 41.6715 24.6 42.1687 24.6H47.7937C48.291 24.6 48.7679 24.4024 49.1196 24.0508C49.4712 23.6992 49.6687 23.2223 49.6687 22.725V15.225H57.0562C57.5535 15.225 58.0304 15.4225 58.3821 15.7742C58.7337 16.1258 58.9312 16.6027 58.9312 17.1V43.125H31.0687ZM74.7562 72.9C74.7485 73.3948 74.5485 73.8673 74.1985 74.2172C73.8485 74.5672 73.3761 74.7672 72.8812 74.775H48.75C48.2551 74.7672 47.7827 74.5672 47.4327 74.2172C47.0828 73.8673 46.8827 73.3948 46.875 72.9V46.875H56.1375V54.375C56.1375 54.8723 56.335 55.3492 56.6867 55.7008C57.0383 56.0524 57.5152 56.25 58.0125 56.25H63.6375C64.1348 56.25 64.6117 56.0524 64.9633 55.7008C65.3149 55.3492 65.5125 54.8723 65.5125 54.375V46.875H72.9C73.3973 46.875 73.8742 47.0725 74.2258 47.4241C74.5774 47.7758 74.775 48.2527 74.775 48.75L74.7562 72.9Z" fill="#2D3047"/>
</svg>
