<svg width="70" height="70" viewBox="0 0 70 70" fill="none" xmlns="http://www.w3.org/2000/svg">
<path d="M67.1852 36.6424L64.3125 62.7347C64.1857 63.8881 63.6058 64.9438 62.7005 65.6695C61.7952 66.3953 60.6384 66.7317 59.4852 66.6047L13.0988 61.4978C11.9454 61.3708 10.8897 60.7908 10.164 59.8855C9.43822 58.9802 9.10184 57.8236 9.2288 56.6703L9.77903 51.6726" stroke="#FDFDFD" stroke-width="4" stroke-linecap="round" stroke-linejoin="round"/>
<path d="M54.0706 43.75H7.17951C4.82521 43.75 2.91669 41.8256 2.91669 39.4517V7.21496C2.91669 4.84108 4.82521 2.91667 7.17951 2.91667H54.0706C56.4247 2.91667 58.3334 4.84108 58.3334 7.21496V39.4517C58.3334 41.8256 56.4247 43.75 54.0706 43.75Z" stroke="#FDFDFD" stroke-width="4" stroke-linecap="round" stroke-linejoin="round"/>
<path d="M2.91669 14.5834H58.3334" stroke="#FDFDFD" stroke-width="4" stroke-linecap="round" stroke-linejoin="round"/>
<path d="M14.5833 32.0834H20.4166" stroke="#FDFDFD" stroke-width="4" stroke-linecap="round" stroke-linejoin="round"/>
<path d="M21.6229 50.699L28.146 51.4171" stroke="#FDFDFD" stroke-width="4" stroke-linecap="round" stroke-linejoin="round"/>
</svg>
