<svg width="90" height="90" viewBox="0 0 90 90" fill="none" xmlns="http://www.w3.org/2000/svg">
<path d="M28.1485 57.2426C28.5621 58.7396 30.1112 59.6183 31.6084 59.2046C33.1056 58.791 33.984 57.2419 33.5704 55.7445L28.1485 57.2426ZM12.0019 17.7172C10.5052 17.3019 8.95513 18.1786 8.53986 19.6753C8.12458 21.1721 9.00129 22.7221 10.4981 23.1374L12.0019 17.7172ZM75.7072 58.9703C77.2106 58.5799 78.1129 57.0443 77.7221 55.5409C77.3314 54.0375 75.7961 53.1356 74.2927 53.5264L75.7072 58.9703ZM38.2417 65.8455C39.4027 70.0481 36.8542 74.4818 32.3396 75.6551L33.7544 81.0994C41.1682 79.1726 45.6986 71.7146 43.6635 64.3478L38.2417 65.8455ZM32.3396 75.6551C27.7956 76.836 23.2358 74.1987 22.065 69.9608L16.6431 71.4585C18.6686 78.7901 26.3698 83.0186 33.7544 81.0994L32.3396 75.6551ZM22.065 69.9608C20.904 65.7581 23.4525 61.3245 27.9671 60.1511L26.5523 54.7069C19.1383 56.6336 14.6079 64.0916 16.6431 71.4585L22.065 69.9608ZM27.9671 60.1511C32.5111 58.9703 37.0708 61.6076 38.2417 65.8455L43.6635 64.3478C41.6381 57.0162 33.9368 52.788 26.5523 54.7069L27.9671 60.1511ZM33.5704 55.7445L25.4994 26.5302L20.0775 28.0281L28.1485 57.2426L33.5704 55.7445ZM18.3908 19.4897L12.0019 17.7172L10.4981 23.1374L16.8869 24.91L18.3908 19.4897ZM25.4994 26.5302C24.5501 23.0943 21.8291 20.4437 18.3908 19.4897L16.8869 24.91C18.4829 25.3528 19.6715 26.5584 20.0775 28.0281L25.4994 26.5302ZM41.6599 67.8188L75.7072 58.9703L74.2927 53.5264L40.245 62.3745L41.6599 67.8188Z" fill="#FDFDFD"/>
<path d="M35.8703 32.7393C34.0515 26.156 33.1421 22.8643 34.6858 20.2711C36.2295 17.6778 39.6232 16.7958 46.4111 15.0318L53.6107 13.1608C60.3982 11.3968 63.7924 10.5148 66.4657 12.012C69.1395 13.5092 70.0489 16.8009 71.8676 23.3843L73.797 30.367C75.6157 36.9504 76.5251 40.242 74.9812 42.8351C73.4377 45.4286 70.044 46.3106 63.2561 48.0746L56.0565 49.9455C49.269 51.7095 45.8749 52.5915 43.2011 51.0945C40.5274 49.5971 39.618 46.3054 37.7992 39.7223L35.8703 32.7393Z" stroke="#FDFDFD" stroke-width="4"/>
</svg>
