<svg width="90" height="90" viewBox="0 0 90 90" fill="none" xmlns="http://www.w3.org/2000/svg">
<path d="M19.4315 8.45625C18.4561 8.48062 17.5287 8.8853 16.8475 9.58393C16.1663 10.2826 15.7851 11.2198 15.7854 12.1956V77.823C15.7851 78.7988 16.1663 79.736 16.8475 80.4347C17.5287 81.1334 18.456 81.5381 19.4315 81.5625H70.475C71.4668 81.5625 72.418 81.1685 73.1192 80.4672C73.8205 79.7659 74.2145 78.8148 74.2145 77.823V27.1348H59.2567C58.2812 27.1104 57.3539 26.7057 56.6727 26.007C55.9915 25.3084 55.6103 24.3711 55.6106 23.3953V8.4375L19.4315 8.45625Z" stroke="#FDFDFD" stroke-width="4" stroke-linecap="round" stroke-linejoin="round"/>
<path d="M55.4424 8.45624L74.121 27.1348" stroke="#FDFDFD" stroke-width="4" stroke-linecap="round" stroke-linejoin="round"/>
<path d="M29.6963 42.99H60.2102" stroke="#FDFDFD" stroke-width="4" stroke-linecap="round" stroke-linejoin="round"/>
<path d="M29.6963 65.6138H60.2102" stroke="#FDFDFD" stroke-width="4" stroke-linecap="round" stroke-linejoin="round"/>
<path d="M29.6963 54.3019H60.2102" stroke="#FDFDFD" stroke-width="4" stroke-linecap="round" stroke-linejoin="round"/>
</svg>
