<svg width="70" height="70" viewBox="0 0 70 70" fill="none" xmlns="http://www.w3.org/2000/svg">
<g clip-path="url(#clip0_13_332)">
<path d="M51.7323 45.089L42.9033 43.1267V40.3368C46.3153 37.8743 48.5485 33.8755 48.5485 29.3547V28.6231L50.0965 26.688C52.0103 24.2956 53.0648 21.2889 53.0648 18.2249V18.0645C53.0644 8.10423 44.9602 0 34.9997 0C25.0394 0 16.9352 8.10423 16.9352 18.0645V18.2249C16.9352 21.2901 17.9897 24.2956 19.9035 26.688L21.4515 28.6231V29.3547C21.4515 33.8753 23.6847 37.8743 27.0967 40.3368V43.1267L18.2677 45.0878C11.5003 46.5929 6.77411 52.483 6.77411 59.4164V70H63.2257V59.4164C63.2257 52.483 58.4997 46.5929 51.7323 45.089ZM45.4853 46.0137L48.0628 50.3085L36.8029 55.5054L42.3599 45.3181L45.4853 46.0137ZM34.9997 54.0952L29.3545 43.7453V41.6555C31.0752 42.4481 32.9833 42.9031 34.9997 42.9031C37.0161 42.9031 38.9242 42.4481 40.6449 41.6555V43.7453L34.9997 54.0952ZM21.4513 15.6561V24.9807C19.9984 23.0378 19.1932 20.6567 19.1932 18.2249V18.0645C19.1932 9.34837 26.2836 2.25804 34.9997 2.25804C43.716 2.25804 50.8064 9.34837 50.8064 18.0645V18.2249C50.8064 20.6569 50.0014 23.0378 48.5483 24.9821V15.6573L41.6082 16.5255C37.2445 17.0697 32.7565 17.0697 28.3928 16.5255L21.4513 15.6561ZM23.7095 29.3547V18.2147L28.1116 18.7646C32.6581 19.3337 37.3402 19.3337 41.8868 18.7646L46.2901 18.2147V29.3549C46.2901 35.5803 41.2253 40.6453 34.9997 40.6453C28.7743 40.6453 23.7095 35.5803 23.7095 29.3547ZM24.5155 46.0137L27.6407 45.3181L33.1977 55.5054L21.9382 50.3085L24.5155 46.0137ZM51.9355 67.7418V63.2257H49.6774V67.7418H35.0038C35.6256 67.7395 36.129 67.2351 36.129 66.6128C36.129 65.9893 35.6236 65.4837 34.9999 65.4837C34.3764 65.4837 33.8708 65.9893 33.8708 66.6128C33.8708 67.2351 34.3742 67.7395 34.996 67.7418H20.3225V63.2257H18.0643V67.7418H9.03215V59.4162C9.03215 53.5509 13.0312 48.5652 18.7565 47.2938L21.4763 46.6886L18.7067 51.3043L34.9997 58.8248L51.2927 51.3055L48.5231 46.69L51.2429 47.2952C56.9682 48.5654 60.9672 53.5511 60.9672 59.4164V67.7418H51.9355Z" fill="#FDFDFD"/>
<path d="M34.9997 63.2259C35.6233 63.2259 36.1288 62.7204 36.1288 62.0968C36.1288 61.4732 35.6233 60.9677 34.9997 60.9677C34.3761 60.9677 33.8705 61.4732 33.8705 62.0968C33.8705 62.7204 34.3761 63.2259 34.9997 63.2259Z" fill="#FDFDFD"/>
</g>
<defs>
<clipPath id="clip0_13_332">
<rect width="70" height="70" fill="white"/>
</clipPath>
</defs>
</svg>
