<svg width="70" height="70" viewBox="0 0 70 70" fill="none" xmlns="http://www.w3.org/2000/svg">
<path d="M35 64.1667C51.1083 64.1667 64.1666 51.1083 64.1666 35C64.1666 18.8917 51.1083 5.83337 35 5.83337C18.8917 5.83337 5.83331 18.8917 5.83331 35C5.83331 51.1083 18.8917 64.1667 35 64.1667Z" stroke="#FDFDFD" stroke-width="4"/>
<path d="M26.25 40.8334H35" stroke="#FDFDFD" stroke-width="4" stroke-linecap="round"/>
<path d="M29.1667 35V23.9166C29.1667 23.3747 29.1667 23.1038 29.2025 22.877C29.4003 21.629 30.3791 20.6502 31.6272 20.4525C31.8538 20.4166 32.1247 20.4166 32.6667 20.4166H39.375C43.402 20.4166 46.6667 23.6812 46.6667 27.7083C46.6667 31.7353 43.402 35 39.375 35H29.1667ZM29.1667 35V49.5833M29.1667 35H26.25" stroke="#FDFDFD" stroke-width="4" stroke-linecap="round"/>
</svg>
