<svg width="70" height="70" viewBox="0 0 70 70" fill="none" xmlns="http://www.w3.org/2000/svg">
<path fill-rule="evenodd" clip-rule="evenodd" d="M33.1423 47.9931C33.0788 51.1439 30.548 53.6518 27.4755 53.6087C24.4031 53.5654 21.9403 50.9875 21.9611 47.8359C21.9818 44.6845 24.4782 42.1406 27.5509 42.14C29.0492 42.1556 30.4801 42.7811 31.5285 43.8787C32.5772 44.9764 33.1576 46.4563 33.1423 47.9931Z" stroke="#FDFDFD" stroke-width="4" stroke-linecap="round" stroke-linejoin="round"/>
<path fill-rule="evenodd" clip-rule="evenodd" d="M59.773 47.9931C59.7095 51.1439 57.1787 53.6518 54.1062 53.6087C51.0338 53.5654 48.5711 50.9875 48.5919 47.8359C48.6126 44.6845 51.1089 42.1406 54.1816 42.14C55.6799 42.1556 57.1109 42.7811 58.1592 43.8787C59.2079 44.9764 59.7884 46.4563 59.773 47.9931Z" stroke="#FDFDFD" stroke-width="4" stroke-linecap="round" stroke-linejoin="round"/>
<path d="M47.9317 50.0124C49.0469 50.0124 49.9509 49.1083 49.9509 47.9931C49.9509 46.878 49.0469 45.9739 47.9317 45.9739V50.0124ZM33.1423 45.9739C32.0272 45.9739 31.1231 46.878 31.1231 47.9931C31.1231 49.1083 32.0272 50.0124 33.1423 50.0124V45.9739ZM45.923 47.9931C45.923 49.1083 46.8268 50.0124 47.9422 50.0124C49.0574 50.0124 49.9614 49.1083 49.9614 47.9931H45.923ZM49.9614 33.8127C49.9614 32.6976 49.0574 31.7935 47.9422 31.7935C46.8268 31.7935 45.923 32.6976 45.923 33.8127H49.9614ZM47.9422 45.9739C46.8268 45.9739 45.923 46.878 45.923 47.9931C45.923 49.1083 46.8268 50.0124 47.9422 50.0124V45.9739ZM48.601 50.0124C49.7162 50.0124 50.6202 49.1083 50.6202 47.9931C50.6202 46.878 49.7162 45.9739 48.601 45.9739V50.0124ZM59.7396 45.9744C58.6247 45.9987 57.7406 46.9219 57.7648 48.037C57.7888 49.1519 58.7122 50.0361 59.8271 50.0118L59.7396 45.9744ZM65.6923 41.6904L67.7113 41.6549C67.7094 41.5507 67.6994 41.4471 67.6817 41.3445L65.6923 41.6904ZM66.3115 33.4668C66.1204 32.3681 65.0747 31.6322 63.976 31.8234C62.8772 32.0146 62.1417 33.06 62.3326 34.1587L66.3115 33.4668ZM47.9314 19.1881C46.8163 19.1881 45.9122 20.0922 45.9122 21.2074C45.9122 22.3225 46.8163 23.2266 47.9314 23.2266V19.1881ZM57.3055 21.2074V23.2266L57.3184 23.2265L57.3055 21.2074ZM63.2248 27.5101L61.2075 27.424C61.2013 27.5687 61.2107 27.7137 61.2355 27.8564L63.2248 27.5101ZM62.3326 34.1587C62.5237 35.2574 63.5697 35.9932 64.6684 35.8021C65.7672 35.6107 66.503 34.5652 66.3115 33.4668L62.3326 34.1587ZM49.9507 21.2074C49.9507 20.0922 49.0469 19.1881 47.9314 19.1881C46.8163 19.1881 45.9122 20.0922 45.9122 21.2074H49.9507ZM45.9122 33.8127C45.9122 34.9279 46.8163 35.832 47.9314 35.832C49.0469 35.832 49.9507 34.9279 49.9507 33.8127H45.9122ZM45.9122 21.2074C45.9122 22.3225 46.8163 23.2266 47.9314 23.2266C49.0469 23.2266 49.9507 22.3225 49.9507 21.2074H45.9122ZM47.9314 19.0535L45.9122 19.0406V19.0535H47.9314ZM45.1384 16.1539L45.15 14.1347H45.1384V16.1539ZM19.9779 16.1539V14.1346L19.9683 14.1347L19.9779 16.1539ZM17.1823 19.0481H19.2016L19.2015 19.0389L17.1823 19.0481ZM17.1823 45.0962L19.2016 45.1054V45.0962H17.1823ZM19.9779 47.9904L19.9683 50.0097H19.9779V47.9904ZM21.9493 50.0097C23.0645 50.0097 23.9686 49.1056 23.9686 47.9904C23.9686 46.8753 23.0645 45.9712 21.9493 45.9712V50.0097ZM47.9368 31.7908C46.8217 31.7908 45.9176 32.6949 45.9176 33.8101C45.9176 34.9252 46.8217 35.8293 47.9368 35.8293V31.7908ZM64.3273 35.8293C65.4425 35.8293 66.3465 34.9252 66.3465 33.8101C66.3465 32.6949 65.4425 31.7908 64.3273 31.7908V35.8293ZM2.69233 19.5193C1.57713 19.5193 0.673096 20.4233 0.673096 21.5385C0.673096 22.6537 1.57713 23.5577 2.69233 23.5577V19.5193ZM10.9086 23.5577C12.0238 23.5577 12.9278 22.6537 12.9278 21.5385C12.9278 20.4233 12.0238 19.5193 10.9086 19.5193V23.5577ZM5.31733 27.5962C4.20215 27.5962 3.2981 28.5003 3.2981 29.6154C3.2981 30.7306 4.20215 31.6347 5.31733 31.6347V27.5962ZM10.5673 31.6347C11.6825 31.6347 12.5866 30.7306 12.5866 29.6154C12.5866 28.5003 11.6825 27.5962 10.5673 27.5962V31.6347ZM6.91858 35.6731C5.8034 35.6731 4.89935 36.5772 4.89935 37.6924C4.89935 38.8075 5.8034 39.7116 6.91858 39.7116V35.6731ZM10.5673 39.7116C11.6825 39.7116 12.5866 38.8075 12.5866 37.6924C12.5866 36.5772 11.6825 35.6731 10.5673 35.6731V39.7116ZM47.9317 45.9739H33.1423V50.0124H47.9317V45.9739ZM49.9614 47.9931V33.8127H45.923V47.9931H49.9614ZM47.9422 50.0124H48.601V45.9739H47.9422V50.0124ZM59.8271 50.0118C64.3128 49.9146 67.7899 46.1303 67.7113 41.6549L63.6734 41.726C63.7148 44.0742 61.9067 45.9273 59.7396 45.9744L59.8271 50.0118ZM67.6817 41.3445L66.3115 33.4668L62.3326 34.1587L63.703 42.0364L67.6817 41.3445ZM47.9314 23.2266L57.3055 23.2266V19.1881H47.9314V23.2266ZM57.3184 23.2265C58.3606 23.2198 59.3713 23.6512 60.1112 24.439L63.0549 21.6743C61.5572 20.0796 59.4755 19.1741 57.2923 19.1882L57.3184 23.2265ZM60.1112 24.439C60.8529 25.2287 61.2551 26.3071 61.2075 27.424L65.2422 27.5961C65.3356 25.4081 64.5508 23.267 63.0549 21.6743L60.1112 24.439ZM61.2355 27.8564L62.3326 34.1587L66.3115 33.4668L65.2142 27.1637L61.2355 27.8564ZM45.9122 21.2074V33.8127H49.9507V21.2074H45.9122ZM49.9507 21.2074V19.0535H45.9122V21.2074H49.9507ZM49.9507 19.0664C49.959 17.7823 49.4698 16.5378 48.5752 15.6092L45.6667 18.4108C45.8199 18.57 45.9136 18.7957 45.9122 19.0406L49.9507 19.0664ZM48.5752 15.6092C47.6792 14.6788 46.4482 14.1421 45.15 14.1347L45.1271 18.1731C45.3199 18.1742 45.5151 18.2535 45.6667 18.4108L48.5752 15.6092ZM45.1384 14.1347L19.9779 14.1346V18.1731H45.1384V14.1347ZM19.9683 14.1347C18.6711 14.1409 17.4402 14.6758 16.5434 15.6043L19.448 18.41C19.5997 18.253 19.7949 18.174 19.9876 18.1731L19.9683 14.1347ZM16.5434 15.6043C15.6481 16.5311 15.1573 17.7741 15.1631 19.0574L19.2015 19.0389C19.2004 18.7941 19.2947 18.5688 19.448 18.41L16.5434 15.6043ZM15.1631 19.0481V45.0962H19.2016L19.2016 19.0481H15.1631ZM15.1631 45.0871C15.1573 46.3702 15.6481 47.6132 16.5434 48.5399L19.448 45.7343C19.2947 45.5754 19.2005 45.3501 19.2016 45.1054L15.1631 45.0871ZM16.5434 48.5399C17.4402 49.4685 18.6711 50.0035 19.9683 50.0097L19.9876 45.9712C19.7949 45.9704 19.5997 45.8913 19.448 45.7343L16.5434 48.5399ZM19.9779 50.0097H21.9493V45.9712H19.9779V50.0097ZM47.9368 35.8293H64.3273V31.7908H47.9368V35.8293ZM2.69233 23.5577H10.9086V19.5193H2.69233V23.5577ZM5.31733 31.6347H10.5673V27.5962H5.31733V31.6347ZM6.91858 39.7116H10.5673V35.6731H6.91858V39.7116Z" fill="#FDFDFD"/>
</svg>
