<svg width="90" height="90" viewBox="0 0 90 90" fill="none" xmlns="http://www.w3.org/2000/svg">
<path d="M88.5938 56.603H86.8359V48.8686C86.8359 46.267 84.8953 44.2983 82.2656 44.2983H73.8281C73.6523 44.2983 73.4414 44.2034 73.3219 44.0838L60.1734 31.287C59.5828 30.6963 58.8656 30.2639 58.0078 30.2358H48.5156V62.5795H62.5781C62.9016 62.5795 63.2215 62.1717 63.2812 61.8764C64.1672 56.7928 68.4949 52.9362 73.8422 52.9362C79.193 52.9362 83.6227 56.8069 84.5086 61.8905C84.5684 62.2139 85.1062 62.5795 85.4297 62.5795H86.1328C87.8168 62.5795 89.2969 61.0608 89.2969 59.4084V57.2217C89.2969 56.8948 88.9488 56.603 88.5938 56.603ZM67.1484 44.2983H52.7344C52.3793 44.2983 52.0312 43.9523 52.0312 43.6008L52.0172 34.5073C52.0172 34.1522 52.3793 33.7514 52.7344 33.7514H57.3047C57.4805 33.7514 57.8391 33.9448 57.9867 34.0643L67.5 43.2436C67.8551 43.6866 67.7109 44.2983 67.1484 44.2983ZM0.703125 17.6885V32.1202H15.1172V25.8202L27.8613 36.3459L15.1172 46.8717V40.5577H0.703125V59.5702C0.703125 61.1452 1.94062 62.5795 3.51562 62.5795H11.25C11.5734 62.5795 11.8934 62.1717 11.9531 61.8764C12.8391 56.7928 17.3426 53.2807 22.6898 53.2807C28.0371 53.2807 32.4703 56.8069 33.3563 61.8905C33.416 62.2139 33.7781 62.5795 34.1016 62.5795H45.7031V17.5795L0.703125 17.6885ZM73.8422 55.7135C69.3527 55.7135 65.7176 59.3487 65.7176 63.8381C65.7176 68.3311 69.3527 71.9662 73.8422 71.9662C78.3352 71.9662 81.9703 68.3311 81.9703 63.8381C81.9703 59.3487 78.3352 55.7135 73.8422 55.7135ZM73.8422 66.953C72.1371 66.953 70.7309 65.5467 70.7309 63.8381C70.7309 62.133 72.1371 60.7268 73.8422 60.7268C75.5508 60.7268 76.957 62.133 76.957 63.8381C76.957 65.5467 75.5508 66.953 73.8422 66.953ZM22.6898 56.0616C18.1969 56.0616 14.5652 59.6932 14.5652 64.1862C14.5652 68.6756 18.1969 72.3108 22.6898 72.3108C27.1793 72.3108 30.8145 68.6756 30.8145 64.1862C30.8145 59.6932 27.1793 56.0616 22.6898 56.0616ZM22.6898 67.2975C20.9848 67.2975 19.5785 65.8913 19.5785 64.1862C19.5785 62.4811 20.9848 61.0748 22.6898 61.0748C24.3949 61.0748 25.8012 62.4811 25.8012 64.1862C25.8012 65.8913 24.3949 67.2975 22.6898 67.2975Z" fill="#FDFDFD"/>
</svg>
