<svg width="20" height="20" viewBox="0 0 20 20" fill="none" xmlns="http://www.w3.org/2000/svg">
<g clip-path="url(#clip0_13_201)">
<path fill-rule="evenodd" clip-rule="evenodd" d="M16.5546 3.4096C8.86783 -4.0546 -3.19097 5.1792 2.03343 14.5386L0.724426 19.3178L5.61543 18.0354C14.9728 22.9828 23.931 10.993 16.5546 3.4096Z" fill="#F1F1F1"/>
<path fill-rule="evenodd" clip-rule="evenodd" d="M10.0286 17.749C8.51003 17.7544 7.03383 17.2984 5.76063 16.49L2.80143 17.2658L3.59143 14.3816C2.70383 13.0662 2.20323 11.5234 2.21003 9.9266C2.19603 3.0168 10.695 -0.506202 15.5592 4.4036C20.4624 9.2716 16.9404 17.7642 10.0286 17.749Z" fill="#66E066"/>
<path fill-rule="evenodd" clip-rule="evenodd" d="M14.317 11.8952C14.082 11.7776 12.9264 11.209 12.711 11.1306C12.4956 11.0522 12.3388 11.013 12.1822 11.2484C12.0254 11.4836 11.5754 12.0128 11.4382 12.1694C11.3012 12.3264 11.164 12.346 10.929 12.2284C10.4212 12.2962 7.81621 10.0932 7.73141 9.4344C7.59441 9.1994 7.71681 9.072 7.83461 8.9548C8.03921 8.7302 8.29821 8.4478 8.42201 8.1512C8.50041 7.9942 8.46121 7.857 8.40241 7.7394C8.34361 7.6218 7.88681 6.4594 7.67781 5.9948C7.50181 5.6034 7.31641 5.5956 7.14901 5.5886C6.75241 5.5948 6.44541 5.4918 6.07181 5.8772C4.67101 7.2254 5.31341 9.12 6.20881 10.2682C6.32621 10.425 7.83481 12.8738 10.2238 13.8158C12.2092 14.5988 12.6132 14.443 13.0442 14.4038C13.4752 14.3646 14.4348 13.8354 14.6306 13.2866C14.8264 12.7378 14.8264 12.2674 14.7678 12.1692C14.7088 12.0716 14.552 12.0128 14.317 11.8952Z" fill="#F1F1F1"/>
</g>
<defs>
<clipPath id="clip0_13_201">
<rect width="20" height="20" fill="white"/>
</clipPath>
</defs>
</svg>
